<?xml version="1.0" encoding="UTF-8"?>
<svg xmlns="http://www.w3.org/2000/svg" id="Layer_1" data-name="Layer 1" viewBox="0 0 24 24">
  <path d="m21,19.942v-2.704c-.716.48-1.575.762-2.5.762s-1.785-.28-2.5-.76v.372c0,1.909,1.044,3.658,2.725,4.563l3.491,1.824h-6.122c-1.927-1.536-3.094-3.871-3.094-6.387v-7.613c0-.983.748-2,2-2s2,1.017,2,2v3.5c0,.827.673,1.5,1.5,1.5s1.5-.673,1.5-1.5v-2.956L14.271,2.36c-.475-.679-.31-1.614.369-2.089.679-.476,1.614-.312,2.089.368l6.277,8.967c.65.93.994,2.021.994,3.154v8.739s-3-1.558-3-1.558Zm-10-9.942c0-.983-.748-2-2-2s-2,1.017-2,2v3.5c0,.827-.673,1.5-1.5,1.5s-1.5-.673-1.5-1.5v-2.956L9.729,2.36c.475-.679.31-1.614-.369-2.089-.681-.476-1.614-.312-2.089.368L.994,9.607c-.65.929-.994,2.02-.994,3.153v8.739s3-1.558,3-1.558v-2.704c.716.48,1.575.762,2.5.762s1.785-.28,2.5-.76v.372c0,1.909-1.044,3.658-2.725,4.563l-3.491,1.824h6.122c1.927-1.536,3.094-3.871,3.094-6.387v-7.613Z"/>
</svg>
